<svg xmlns="http://www.w3.org/2000/svg" width="1538.3002" height="2048" viewBox="0 0 1538.3002 2048"><path d="M1023.95 0c627.8 0 769.2 255.4 769.2 255.4v833.4c0 146.7-39.5 288.6-117.4 421.9-59.9 102.6-142.5 199.6-245.4 288.5-258.5 210.9-406.4 248.8-406.4 248.8s-147.9-37.9-406.3-248.8c-102.9-88.9-185.5-185.9-245.4-288.5-77.9-133.3-117.4-275.2-117.4-421.9V255.4c-.2 0 141.3-255.4 769.1-255.4" style="fill:#009429" transform="translate(-254.85)"/><path d="M1026.6 1290.8c2.3-8.2.5-3.8 1.5-8.3.3-1.5 10.4-50.4-11.8-89 0 0-22.6-39.8-50-11.3-1.9 2-9 3-13.2 9.7 0 0-45 76.5-48.8 153.4 0 0-6.1 77 25.6 156.9 17 11.3 41.2 14.5 41.2 14.6 24.3 3.5 48.4-.6 48.4-.6 18.2-3.2 24.7-15.6 24.7-15.6-30.5-154.6-17.6-209.8-17.6-209.8" style="fill:#e90055" transform="translate(-254.85)"/><path d="M880.4 1715.1a30.1 30.1 0 0 1-10.3 3c-5 .5-9 .4-10.4 0 11.4 97.1 62.6 85.4 62.6 85.4s-32.3-16.5-41.9-88.4M924.2 1729.7s-12.3-1.4-20.1-4.3c21.5 104.9 65 97.5 67.1 96.8-2.1-1-27.4-5.3-47-92.5M974 1754.7s-11.1.4-20-2.2c28 110.3 77.1 88.8 78.1 88.2-.2 0-40.5-13.1-58.1-86" style="fill:#200000" transform="translate(-254.85)"/><path d="M1353.5 1426.6c3.5-1 9.8.6 15.5 2.6-5.7-2-12-3.6-15.5-2.6" style="fill:none" transform="translate(-254.85)"/><path d="M524 896c-1.6-2.7-2.8-5-4.5-7.9-32.9-15.4-57.6-5.7-57.6-5.7-4.1 1.5-.7 7.9-.7 7.9a6.35 6.35 0 0 0 7 3.7c25.1-4.6 59.1 7.7 59.1 7.7-1-1.6-2.3-3.9-3.3-5.7zM508.2 865.2c-2-4.5-3.6-8.2-5.3-13-34.3-29.3-69-28.7-69-28.7-8.2 0-7 7.8-7 7.8.7 5.8 7.6 6.5 7.6 6.5 51.1 7.5 80.5 41.7 80.9 42.3-.1-.1-5.3-10.6-7.2-14.9zM815.9 484.6a2.4 2.4 0 0 0-.7-.1c-2.4 0-13 4.3-44.1 76.4-.5 1.2-2.8 6.5-3 7 3-1.7 18-10 21.3-12 1.1-1.8 36.3-68.3 26.5-71.3zM766.1 511.4s-12.6-5.4-54.2 86.6c5.3-2.8 15.3-8.2 21.2-11.3 1-1.9 40.7-71.6 33-75.3zM708.4 530.3s-13.6-3.1-68.6 102.4c8.9-3.1 21.6-9.5 21.6-9.5 4.9-6.8 61.7-89.7 47-92.9zM975.7 375.7s6.9-2.7 6-7c0 0-.7-3.5-5.8-3.9 0 0-46.7-4-135.4 161 3.8-2.4 26.9-18 26.9-18S928.7 397 975.7 375.7zM977.1 426.3s26.1-46.5 51-47.4c.3 0 7.6.2 8.6-3 0 0 1.6-4-6.4-6.6 0 0-23.4-8.5-54.9 35.5 0 0-12.8 17.8-28.9 43.8 3.6-3.3 30.6-22.3 30.6-22.3z" style="fill:#fff;stroke:#fff;stroke-miterlimit:10" transform="translate(-254.85)"/><path d="M964.7 1385.2v-.2c-.3-8-.4-16-.3-23.9 0-4.9.1-9.7.2-14.5v-1.3a.9.9 0 0 1-.1-.5c0-.2-.1-.3-.1-.5a1.3 1.3 0 0 0-.1-.6 1.4 1.4 0 0 0-.2-.6 4 4 0 0 0-.6-1.1 2.2 2.2 0 0 1-.4-.5c-1.1-1.2-3-2.2-6-2.2a26.7 26.7 0 0 0-9.1 1.9c-1.6.6-4.3 1.8-4.5 1.9-2.9 82.3 16.2 167.7 16.2 167.7 6.2 3 14.5 4.3 20.2 4.4-.5-3.1-12.9-66.4-15.2-130M1351.1 1428.4s-36.6 74.4-116.9 122.6a67 67 0 0 1-15.3 6 62 62 0 0 0 15.3-6c80.4-48.2 116.9-122.6 116.9-122.6a3.5 3.5 0 0 1 2.4-1.8 3.73 3.73 0 0 0-2.4 1.8" style="fill:#200000" transform="translate(-254.85)"/><path d="M1178.3 1582.2a.35.35 0 0 0-.2-.1c.1 0 .1 0 .2.1" style="fill:#fff" transform="translate(-254.85)"/><path d="M930.9 1197.7c-1.1 1-1.8.7-2.5 1.3a8.5 8.5 0 0 0-1.5 1.8c-89.4 171.8-17 294.2-17 294.2 3.5.5 8 1.1 11 1.8a81 81 0 0 1 12 3.9c-29.2-80.5-24.8-150.8-24.8-150.8 3.8-76.9 40.6-141.5 40.6-141.5 6.1-12.1 11.9-20.5 17.6-26.2-.1 0-23.6-.3-35.4 15.5" style="fill:#200000" transform="translate(-254.85)"/><path d="M1401.4 1393.6a209 209 0 0 0 7.9-39.5 215.7 215.7 0 0 1-7.9 39.5M1409.8 1349.4c-.1 1.6-.3 3.2-.4 4.8.1-1.6.2-3.2.4-4.8" style="fill:none" transform="translate(-254.85)"/><path d="M1407.1 1395.2c-.1.6 0 .2 0 0z" style="fill:#e90055;stroke:#e90055;stroke-width:2px;stroke-miterlimit:10" transform="translate(-254.85)"/><path d="M1409.8 1349.6c-19.3-44-54.1-132.5-99.6-169.5 0 0 82.6-48 19.3-149.8 0 0-89.8-139.5-214.6-142.3-22-.5-36.1-1.6-60.3 6.6a26.92 26.92 0 0 1 17.7 12.8c-8 .9-26.4 2.1-37.5 1.7-24.3-.8-40.9 2.9-40.9 2.9a115 115 0 0 0-18.7 5.4c-.6 2-1.5 4.9-2.3 7.3 10.9-3.1 34.9-3.5 78.3 20.4 0 0 59.2 31.3 97.7 109.4a8.1 8.1 0 0 1 .7 3.1c0 2.5-6.4 7.1-15.1 11.7 1.5.2 15.3 1 15.1 6.7 0 1.7-2.3 3.5-4.9 6.1 0 0-32.9 33.3-32.8 95.9 0 2 .2 4.9.3 6.9 0 4.8 1.3 56.6 65.4 115.5 0 0 2.1 2 3.1 2.7 0 0 9.6 7 .5 12.8 58 66.8 27.7 110.1 27.7 110.1-52.7 83.3-128.7-20.9-128.7-20.9-.2 1.1-3.8 2.4-3.7 2.8.5 8.4.3 13.1.4 18.2 0 3.2-.1 7.7-.3 10.1-2.1 40.9 16 57.5 16 57.5 52.3 46.3 103.7 65.6 103.7 65.6 7.2 3 17.2 2.8 24 1.2a60.4 60.4 0 0 0 16.3-7c80.3-48.2 116.2-123.2 116.2-123.2a4.1 4.1 0 0 1 2.7-1.8c3.5-1 7.9.8 13.6 2.8.9.3 7.3 2.9 8.3 3.4a94 94 0 0 1 8.7 5s16.2-29.2 21.2-44.5a165.6 165.6 0 0 0 7.4-36c-.1-1.6-5.1-8-4.9-9.6zM1407.1 1395.2Z" style="fill:#e90055;stroke:#e90055;stroke-width:2px;stroke-miterlimit:10" transform="translate(-254.85)"/><path d="M1651.9 443.3s-14.1-135.1-75.8-153c0 0 2.6 22.1-28.7 38.9 0 0-13.5-.6-28-16.3 0 0 19.7-49.4-28-71.6.1.9.2 33.5-38.7 49.9-71.5-9.2-118.8 2.4-118.8 2.4s-77.6 18.6-133.5 24.9c-14.1 4.5-27.8 9.1-40.8 13.9-22.6 13.4-96.7 43.7-104.1 45.6-2.3 1.2-4.7 2.3-7 3.5 0 0-5.9 4.5-11.6 6.3a62 62 0 0 1-12.2 6.7c-2.4 1.4-4.8 2.8-7.1 4.1-.1 1.2-12.5 8.5-13.7 8.1-1.7 1-3.5 2.1-5.2 3.1-.3 1.3-10 7.6-11.8 7.5-2.3 1.5-4.7 3-6.9 4.4 0 0-8.5 5.6-21.8 15.3-2.5 1.9-5.2 3.9-8 6 0-.1.1-.1.1-.2l-.1.1c-13 9.8-19.9 15.8-19.9 15.8-3.5 3.2-7.3 6.4-11.1 9.7-6.9 12.3-36.8 32.6-36.8 32.6a27.23 27.23 0 0 1-13.7 4.7s-22.7 15.2-26.6 17.5c-17 10.8-34.5 21.2-51.7 31l-3.1 1.6c-13.7 18.8-57.1 37.3-57.1 37.3-10.4 4.4-24.6 7.2-24.6 7.2-20.2 10.4-35.9 17.9-43.3 21.5 0 0-12.5 6.2-21.5 9.2-25.2 9-52 13.8-52 13.8a53 53 0 0 0-8.3 2.4c0 .9-1.9 9-5.2 11.4 0 0-11 6.4-16.6 23.3 0 0-11.6 30.8-3.6 60.5-20.8-2.6-38.2 11.7-38.2 11.7-27 20.9-19.2 60-19.2 60 12.6 71.9 54.6 114.3 54.6 114.3 19.7 19.1 61.9 34.8 61.9 34.9 95.5 40.9 174.6 42.1 174.6 42.1 43.9-8.9 83.5-32.7 83.5-32.7 41.1-22.6 67.3-38.7 67.3-38.7a260.4 260.4 0 0 1 35.6-16.6 118 118 0 0 1 18.7-5.4s16.6-3.7 40.9-2.9c11.1.4 29.5-.8 37.5-1.7a26.92 26.92 0 0 0-17.7-12.8c24.2-8.2 38.3-7.1 60.3-6.6 124.9 2.8 214.6 142.3 214.6 142.3 63.3 101.8-19.3 149.8-19.3 149.8 45.5 36.9 80.3 125.5 99.6 169.5-.1 1.6-.3 3.2-.4 4.8a217.7 217.7 0 0 1-7.9 39.5 13 13 0 0 0-.4 1.4c-5 15.3-19.3 39.5-19.3 39.5-5 4.1-17.5 2.1-17.5 2.1-13.7 26.5-19.5 40-97.7 108.6-25.8 22.6-62.2 40.4-69.4 42.4-3.3.9-7.9-.4-7.9-.4s-.7-1-4.9-3.2c-1-.5-3.1-1.5-4-1.9-5.5-2.3-17.5-6.7-23.1-5.1-7.6 2.3-50.5-1.9-87.3-10.9-81.8-19.9-205.9-34-265.5 6.7-82 89.8 64.1 214.4 64.1 214.4-17.2-39.1-19.8-68.3-19.8-68.3a64 64 0 0 0 11.9 1.8 45 45 0 0 0 5.2 0 47.2 47.2 0 0 0 11.2-1.5c.1.8.2 1.5.3 2.3 9.6 71.9 37.4 80.5 43.6 81.6a12 12 0 0 0 1.3.1c-22.2-41.7-27.1-75.8-27.1-75.8 3.7 1.1 7.2 1.9 10.3 2.6a128 128 0 0 0 14.9 2.4.76.76 0 0 0 .1.4c18 89.3 46.6 89.1 50.7 89.1-22.1-38.5-26.5-67.1-26.5-67.1 3.6.9 7.3 1.5 10.7 2 8 1.1 14.7 1.3 14.7 1.3 19.2 75.8 49.3 82.4 59 82.5a22 22 0 0 0 3-.2c-30-33.9-26.5-61-26.5-61 55.9 37.9 128.9 57 130.9 57.5 180.6-107.7 515.4-359.9 515.4-748.1z" style="fill:#ffac35" transform="translate(-254.85)"/><path d="M1211.2 393.1c-5.2 16.8 13.5 6.8 13.5 6.8 11.1-6.8 10.3-28.7 10.3-28.7 1.1-17.9 54.8-28.6 54.8-28.6 7.6-1 10.3-11 10.3-11a43.9 43.9 0 0 1-15.1 2.7c-10.6-.4 21-10.2 21-10.2 10.5 17.3 28.7 21.6 28.7 21.6 29 4.4 0 4.9 0 4.9-48.7 2.7-67.6 128.7-67.6 128.7a451 451 0 0 0-4.2 50.1c-.4 244-180.8 209.9-180.8 209.9-12-2.3-7.4 5.8-7.4 5.8 4.6 8.6 15.8 9.3 15.8 9.3 37.8 4.2 69.5-1.4 95.8-12.5-6 4.3.8 12.5.8 12.5 3.8 4.8 8.5 4.3 8.5 4.3 34.3-1.2 51 21.8 51 21.8 16.9 22.5 15.2 45.8 15.2 45.8-.6 13.7 17.8 24.2 17.8 24.2a143.6 143.6 0 0 1 39 37.4c27 41.6 17.7 55.5 17.7 55.5 32.1 2.6 36.8-17.7 36.8-17.7 8.9-38.6-55.3-97.1-55.3-97.1-23.5-22.1-15.7-75.4-15.7-75.4 5-26.4 42.8-4 42.8-4 30.2 15.4 42-1.4 42-1.4-23.3-13.4-37.9-16.8-37.9-16.8 6.9-18.1 42.5-4.4 42.5-4.4 73.3 27.9 110.8 99.5 110.8 99.5 33.1 61.5 19.8 98.4 19.8 98.4-9.2 30.1-3.8 62.8-3.8 62.8 13.5 81.6 0 137.7 0 137.7-12.5 63.7 56.6 147.9 56.6 147.9 48.5-148.9 52.4-294.5 52.4-294.5 3.6-104.6-5.7-189.7-5.7-189.7-3.6-62.6 7.5-121.9 7.5-121.9 16.7-108.8 21.6-182.2 22.8-223.5v-69.7s-.4-1-1.2-2.6c-.4-.8-.8-1.9-1.4-3-4.1-9-12.5-26.9-20.2-40.2 0 0-20.4-38.4-58.3-43a29.91 29.91 0 0 1-7.3 25.6s-11 12.3-20.5 12.2a8.6 8.6 0 0 1-3.9-.9s-6.8-3.6-19.7-8.8a547 547 0 0 0-66.7-21.7c53-12 39-49.1 38.7-49.9a42 42 0 0 1-1.3 4.2c-9.9 27.3-45.8 28.4-45.8 28.4-93.4 5.7-174.9 22.9-243.9 44.6 24.7 33.6 10.8 74.6 10.8 74.6m304.9 370.8c-21.4 3-40.1-37-40.1-37.1-5.6-10.3.9-12.2.9-12.2a31.86 31.86 0 0 0 15.3-8.1c7.2-8 10.3.8 10.3.8 11.1 27.7 25.8 45 25.8 45 9.8 10.6-12.2 11.6-12.2 11.6m30.8-42s-7.3-21.7-22.6-32.8c0 0-9.3-6.5 1.4-10.5 0 0 7.8-1.9 14.2-10.8 0 0 6.6-10.3 13.5 2.6.1 0 11.6 19.4 11.8 38.2 0 0 .4 7.7-3.7 10.6-.1 0-11.3 8.5-14.6 2.7m37.4 300c16.1 41.7-8.1 99.5-8.1 99.5-4.6 11.2-19 5.9-19 5.9-8.5-2-4.3-13.6-4.3-13.6 13-37.4 12.2-81.8 12.2-81.8 0-6.8-8.9 0-8.9 0 8.1-44.2 0-61.8 0-61.8 14.3.9 10.6-11.3 10.6-11.3-5-19.4-12.5-39.3-12.5-39.3-5.6-14.8 13.9-20.4 13.9-20.4 20.4-6.6 23.5 41.6 23.5 41.6 2.5 23.3-9 26-9 26 14.6 18.5 1.9 55.1 1.6 55.2m14.3-338.8s-10.1 2.1-11.5-4.3c0 0-2.9-20.9-19.8-31.3 0 0-9.1-5.8 2.4-10.4 0 0 3.4-.8 7.3-6.6 0 0 3.8-5.5 9-1.4.1 0 10.9 8.4 18.6 44.1 0 0 2.5 8.1-6 9.9m-218.8-338.3s11-6.3 4.4-13.4c0 0-3.4-2.8-2-6.9 0 0 13-43.3 56.2-27.5 56.3 19.8 77.1 34.7 77.7 35.1-1.7.4-160.2 33.5-219.4 229.3-2.2 7.7-3 10.7-3 10.7-2 7.2-8 7.2-8 7.2-9.4 0-7.4-7.2-7.4-7.2s14.7-88.7 36.9-123.9a77.1 77.1 0 0 1 13.5-17.3 44.34 44.34 0 0 0 12.4-28.5c.6-16.6 22.1-42.3 22.1-42.3a70.2 70.2 0 0 1 16.6-15.3" style="fill:#200000" transform="translate(-254.85)"/><path d="M1127.7 384.8c7.8 6 8.2 18.8 8.2 18.8-1 29 5.3 44.6 5.3 44.6 6.3 12.8 16 2.7 16 2.7 13.6-14.3 25.2-69.2 25.2-69.2 7.9-34.5-15.8-46.6-22.8-49.3a923 923 0 0 0-104.1 45.6c57.6-6.1 72.2 6.8 72.2 6.8M787.3 555.8c-5.8 3.3-79.6 43.3-81.7 44.5 0 0 8.4 27.6 17 23.5 0 0 43.6-24.3 54-36.1 0 0 4.7-6.6 11.4-9.1 0 0 3.4-.6 9.1-4.4-.1 0 7.3-5-9.8-18.4M919.2 468.4a597 597 0 0 1-50.5 37.3s16.2 19.3 26.2 12.6a13.93 13.93 0 0 0 6.5-9.4s.6-7.2 17.7-14.6c0 0 4.2-1.1 5.8-4.9-.1 0 3.6-7-5.7-21M1017.6 398.6c-4.7 2.8-9.3 5.5-13.7 8.1-.1 13.8 8.2 20.4 8.2 20.4.5-.8.9-1.5 1.4-2.3l.6-1.2a32 32 0 0 0 1.9-4.8 49.2 49.2 0 0 0 1.6-20.2M998.7 409.8l-11.8 7.5a48.6 48.6 0 0 0 1.4 20.7c10.6-13.8 10.4-27.4 10.4-28.2M1037.6 392.9a33 33 0 0 0-.7-5.1l-12.2 6.7c.1 14.4 8.4 21.1 8.4 21.1 5.1-6.9 5-16.8 4.5-22.7M1048.5 381.5l-11.6 6.3a43 43 0 0 0 1.7 4.3 35.5 35.5 0 0 0 11.1 13.7 44.4 44.4 0 0 0-1.2-24.3M774.6 911.2s2.5 10.8 16.8 13c0 0 195.9-95.9 408.7-94.3 0 0-133.1-50.4-425.5 81.3" style="fill:#200000" transform="translate(-254.85)"/><path d="M741.5 891.3s8.2 11.2 19.1 11.1c0 0 134.2-110.1 401.3-123.5 0 0-139.9-60.8-420.4 112.4M966.4 728.9c1.9 7.6 6.6 7.6 6.6 7.6 17.6 2.6 24.7 9.9 24.7 9.9s4.2 4.4 14.5-2c8.9-5.5-6.3-12.9-6.3-12.9-45.1-16.2-39.5-2.5-39.5-2.6M915.3 663.7s-4.3-3-7.9.2c0 0-3.9 3.4-.7 7 0 0 19.5 24.3 28.7 46 0 0 3.8 9.2 16.2 5.4 0 0 11.9-3.6 5.2-16.7 0 0-7.7-18.8-41.5-41.9M701.5 859.1s8.1 12 22.8 11.9c0 0 54.4-73.8 211.2-108.9 0 0-103.5-21.4-234 97M695.6 842.3c35-72.6 140.6-112.8 141.9-113.3-77-27.5-162 104.7-162 104.7 6.2 9.7 20 8.6 20.1 8.6M778.8 977.9s12.6 4.4 18.4 12.6c0 0 23-16.9 11.6-24.3 0 0-7.4-6.6-20.5-2.2 0 0-5.8-11.6-24.4-13.6 0 0-12-1.8-22.3 15.2 0 0 23.8-.7 37.2 12.3M689.5 910.5s-9.1 4.3-5.1 12.1c0 0 3.3 7.6 21.3 1.6 0 0 10.3-3.2 8.2-17.4 0 0-15.3-.9-24.4 3.7M719.9 719.4c-38.2-13.8-76.4 86.1-76.4 86.1 8.7 6.1 21.6 5.9 21.7 6 8.7-46.7 54.7-92.1 54.7-92.1M685.6 899.2s-.9-34.8-30.7-28.2c0 0-9.6 3-1.3 9.1 0 0 14.9 8.5 16.1 22.3 0 0-.6 3.1 9.5 4.3 0 0 7.2 1 6.4-7.5M652.4 845c-2.1-5.2-11.8-11.5-11.8-11.6-13.4-10.3-17.1-22-17.1-22-1.3-4.6-8 1.9-8 1.9.3 28 20.9 49.7 20.9 49.7 5.3 5.7 12.2.7 12.2.7 9.6-7.5 3.8-18.7 3.8-18.7" style="fill:#200000" transform="translate(-254.85)"/><path d="M1303.4 603.4s-27.1 98.1-113.5 136.8c2.8-.4 182.6-29.7 248.4-256.2 0 0 27.7-110.5 150.4-116.8-2.8 25.2-65.4 45.5-65.4 45.5a46.64 46.64 0 0 0-30 35.5c51-29.6 71.8-19 71.8-19-46.3 19-78.8 58.6-78.8 58.6 33.9-13.2 60.5-12.8 60.5-12.8a33.25 33.25 0 0 1-26.4 17.1c-7.4.2-12.8 7.7-12.8 7.7 21.5-2.9 29.8 1.2 29.8 1.2-7.4 16.5-43.3 29.6-43.3 29.6a189 189 0 0 1 38.9 2.1c-8.7 9.9-45.4 18.6-45.4 18.6 26.3 6.2 36 12.8 36 12.8-29.9 1.9-47.7 13.9-47.7 13.9 28.2-4.4 49.7-2.6 49.7-2.6-52 18-97.1 65.8-97.1 65.8 14.4 5.3 36.2 0 36.2 0-36.4 33-80 48.8-80 48.8 17.6 1.5 39.4-1.6 39.4-1.6-21.1 13.6-37.4 17.3-37.4 17.3-12.3 4.1-2 7.9-2 7.9s37.4 10.8 78.8-12.6c0 0 110.9-62.2 112.7-145.7 0 0-15.6-1.7-29.3 2.3 6.9-3.8 66.5-24 59.9-214.7 0 0 .9-34.1-26.4-45.6 0 0-.1 6.8-8.9 17.3-11.3 13.6-36.9 33.4-95.4 52.7 0 0-102.6 35.2-172.7 236.1" style="fill:#fff" transform="translate(-254.85)"/><path d="M1238.9 403.1s-9.7 26.9-33.4 36c0 0 .8-20.1-17.8-39.4 0 0-12.8 80-51.8 91 0 0-1.4-16.6-13.8-25.6 0 0-5.8-69.3-20.3-63.8 0 0-30.2 12.6-24 16.7 0 0 24.4 14.3 16.7 55.7 0 0-1.1 32.4-47 30 0 0-45.1.1-95.9-26.4-8.9 42.3 6.5 70.7 6.5 70.7-60.9 12.2-86.9-23.5-86.9-23.5-14.9-7.7-18.7 8.1-18.7 8.1 16 40.1 52.8 43.9 52.8 43.9 30.5 4.1 5.5 11.8 5.5 11.8-15.1 4-24.8 9.4-30.6 13.8-5.9 4.4-7.9 7.8-7.9 7.8-42.6-21.8-65-20.9-65.4-20.9-9.3 0-8 7.5-8 7.5.6 10 17.3 15 17.3 15 51.5 13.1 86.4 32.1 86.4 32.1s9.1 5 12.5 1c4.6-5.2-.9-9.5-1.9-10.3 0 0 31.4-.6 49.5 22.4a6.34 6.34 0 0 0-3 1.2c-6.9 4.9 14.6 27 14.6 27 21.3 22.1 50.3 33.1 72.9 38.5a196.6 196.6 0 0 0 34.8 5.2c99.1 6.5 129.6-65 129.6-65s29.6-53.5 32.9-186.8a240.4 240.4 0 0 1 5-38.9s7.2-41.7 43.4-79.9c0 0-33.2-4.5-54 45.1" style="fill:#200000" transform="translate(-254.85)"/><path d="M1093.1 653.4c51-24.2 29.8-97.3 29.8-97.3-10.2-5.5-25.7-10.5-25.7-10.5 19.4 78.1-34.9 101.7-34.9 101.7 21.9-.4 30.8 6.1 30.8 6.1M1060.1 594.5c13.5-24 3-47.3 3-47.3-3.9-9.5-10.3-4.9-10.3-4.9-35.7 24.1-10.8 54.2-10.8 54.2 9.6 11.8 18.1-2 18.1-2M1025 637.8c11.1-4.9-.8-11.1-.8-11.1-32.2-19.8-16.8-76.9-16.8-76.9-61.5 13-8.2 84.5-8.2 84.5 7.7 8.2 25.8 3.5 25.8 3.5" style="fill:#fff" transform="translate(-254.85)"/><path d="M1216 477.6s-1.3-6.7-4.8-6.9a4.77 4.77 0 0 0-3.8 1.9 37.5 37.5 0 0 0-5.5 8.4s-12.7 27.3-49.1 50.3h-.1a249.4 249.4 0 0 1 3.6 44.4c-.1 16.4-1.7 35.6-6.8 54.4 0 0-9.6 31.5-27.5 31.4 0 0-15.7-2.4-15.2 3.8a12 12 0 0 0 .3 1.4 29.4 29.4 0 0 1 1.4 8.5 8 8 0 0 1-2.9 6.5s-3.1 2.5-5.8 2.5a3.95 3.95 0 0 1-3.9-3 15.48 15.48 0 0 0-5.7-7.6 20.2 20.2 0 0 0-11.4-3s-13.1-.6-15.4 12.8a65 65 0 0 1-8-11.1 70.7 70.7 0 0 0-8.6-11.5c-.1-.1-1.8-1.9-2.4-2.5-3.2-2.8-6.5-3.4-6.7 2 0 0-.1 6.2-3.8 6.5 0 0-5.7.5-12.8-3.7a61.3 61.3 0 0 1-9.1-6.7 84.5 84.5 0 0 1-10.6-11.7c-1 0-24.4-1.6-46.4-11.7a59.8 59.8 0 0 1-14.6-9.9 60.8 60.8 0 0 1-9.6-10.9c-2.3-2.3-8.2-6.8-20.2-6.3a34.82 34.82 0 0 0-24 11.7c8.4 4.6 26.6 16.7 26.6 16.7 37.1 12 49.5 22.4 49.5 22.4 5 .2 9.9 5.6 9.9 5.6 16.1 22.5 53.2 43.2 53.2 43.2a82.1 82.1 0 0 0 23.6 8.8 126 126 0 0 0 30 2.5 153 153 0 0 0 35.2-5.3s46.1-13.4 71.1-56.6c0 0 35.2-58.1 33.2-147.2-.3-10.6-.9-20.8-2.9-30.1" style="fill:#fff" transform="translate(-254.85)"/><path d="M1233.6 1287.5c18.3 4.1 30.9-4.1 30.9-4.1-5.3-42.2-66.6-113.7-66.6-113.7-19.9-21.3-7.3-40.6-7.3-40.6 10.1-19.7 34.1-44.7 34.1-44.7 40 21.3 39 69.5 39 69.5 20.9 7.5 36.6-.4 36.6-.4-23.1-71.8-68-77.3-75.4-77.9h-1a57.36 57.36 0 0 0-31.1 10.8c-63.4 47.1-29.1 85.3-29.1 85.3 72.1 73.2 69.9 115.8 69.9 115.8" style="fill:#200000" transform="translate(-254.85)"/><path d="M1186.4 1304.3c-2.5-1.8-5-3.7-6.2-4.8-64.6-59.4-65.4-111-65.4-115v-.3c-.1-2.1-.1-4.2-.1-6.2-.1-62.6 33.4-95.9 33.4-95.9 2.6-2.5 3.7-4.6 3.7-6.3.1-6-12.3-7.3-12.3-7.3 10.3-4.4 12-8.8 12.1-11.3a3.64 3.64 0 0 0-.5-2c-38.5-78.1-98.9-111.4-98.9-111.4-44.6-24.5-68.8-23.2-79.3-20a36 36 0 0 0-3.7 1.5c-5.8 2.8-7.8 5.5-7.8 7.9 0 4 5.3 6.8 5.3 6.8 10.6 6.4 20.3 4.8 20.3 4.8a56.7 56.7 0 0 1 30 2.5c89.9 34.6 109.3 118.5 109.3 118.5-107.2 137.9 51.5 249.2 51.5 249.2a6.1 6.1 0 0 0 3.3.9c3 0 4.8-3.3 4.9-3.4 4.1-6.2.4-8.2.4-8.2" style="fill:#fff" transform="translate(-254.85)"/><path d="M1377.6 1432.9c-1.3-.6-5.7-2.5-8.4-3.4-5.7-2-12-3.6-15.5-2.6a3.73 3.73 0 0 0-2.4 1.8s-36.5 74.4-116.9 122.6a67 67 0 0 1-15.3 6c-6.8 1.7-14.8 2.3-22.1-.8 0 0-47.4-19.3-99.7-65.6 0 0-16.1-11.9-16.2-54.7 0 0 0-6.3-.1-9.4-.1-5-.4-13.3-.9-21.7-1.8-30.8-6.6-80.4-21.3-131.7-1.5 7.4-2.6 16-2.6 16s-1.3 14.7-1.4 14.9c-6.3 76.3-3.5 123.4-3.4 124.7.4 10.6 1.1 33.3 1.1 33.3 5.1 19.8 22.6 55.7 116.6 102.2a82 82 0 0 1 12.1 7.5c4.1 3.1 6.6 9.7 7.7 13.4.2.8.4 2.2.4 2.2s.4 1.6 3.7 2.4a18.4 18.4 0 0 0 3.8.4c3.5 0 8.5-.8 15.7-3.7 0 0 101.7-37.6 169.3-151.9 0 .1-1.6-.7-4.2-1.9" style="fill:#200000" transform="translate(-254.85)"/><path d="M586.8 758.5c-16.4-6.4-29.5-8.9-40.1-8.8-41.4.5-42.8 41.2-42.8 41.2-1.3 44.6 15 74.1 15 74.1 20.3 41.7 39.2 59.1 39.2 59.1 18.3 18.1 41.5 24.6 41.5 24.6-37.5-121.1-12.8-190.2-12.8-190.2" style="fill:none" transform="translate(-254.85)"/><path d="M1158.6 1657.6c-13.6-3.4-29.6 0-29.5.1 11.1 15.4 33 25.1 33 25.1 14.6.1 31.3-8.7 31.3-8.7-21.8-.7-34.8-16.5-34.8-16.5M1125.6 1669.8c-14.8-3.8-33.6-3.5-33.6-3.5 9.9 32.3 43.4 49 43.4 49a37.25 37.25 0 0 1 18.9-10.3c-24.1-14.4-28.7-35.2-28.7-35.2M1067.5 1669.8c-9-7.8-24.9-7.8-24.9-7.8 2.7 41.7 26 70.9 26 70.9 15.8-5.4 36-3.8 36-3.8-31-27.4-37-59.3-37.1-59.3M1025.1 1652.7c-11.4-1.6-23.2 5-23.2 5 1.3 28.2 10.4 69.8 10.4 69.8a89.3 89.3 0 0 1 28-.4c-20.7-38.5-15.2-74.5-15.2-74.4M973.4 1657.7c8.1 12.4 7.9 34.3 7.9 34.3a42.3 42.3 0 0 1 19.1 3.7c-3-24.3-7.3-35.1-7.3-35.1-6.8-3.7-19.7-2.9-19.7-2.9M953.2 1664.5c6.7 25.4 7.9 56.7 7.9 56.7 11.8 0 17.7 1.2 17.7 1.2-1.2-35.8-6.1-55.7-6.1-55.7-7.6-3.7-19.4-2.3-19.5-2.2M925.6 1646.8c8.8 21 9.5 60.1 9.5 60.1a71.1 71.1 0 0 1 18.2 1.9c0-51.3-9.2-66.9-9.2-66.9a58.4 58.4 0 0 0-18.5 4.9M899.3 1651.1c5.9 24.5 3 52.3 3 52.3 12.8.3 19.8 3.5 19.8 3.5 3.6-34.3-1.9-52-1.9-52-7.4-4.5-20.9-3.8-20.9-3.8M879.5 1637.3c.8 6.6.1 8.6.1 8.6-4.2 2.4-9.8 1.2-9.8 1.2a97.8 97.8 0 0 1 5.7 39.4 43.2 43.2 0 0 1 18.6 1.1c.1-42.5-4-51.1-4-51.1-4.7-1.1-10.7.9-10.6.8M860.6 1649.4c-19.7-2.2-47.1-14-47.1-14a34.3 34.3 0 0 0 11.4 11.8 76 76 0 0 1-21.9-3c15.2 33.8 39.8 56 39.8 56a31.22 31.22 0 0 1 19.7-5.2c-12.2-23.3-1.9-45.6-1.9-45.6" style="fill:#200000" transform="translate(-254.85)"/><path d="M1189.2 1582.8c-.9-3.8-2.6-9.4-6.7-12.5a109 109 0 0 0-12.3-7.2c-93.9-46.5-111-85.6-114.1-97.7a6 6 0 0 0-.2-.7 4.4 4.4 0 0 1-.2-1v-.2a6.6 6.6 0 0 1-.2-1.7v-.3s-.2-2.3-.4-6.6c0-.7-.1-1.4-.1-2.1v-.6c0-.8-.1-1.6-.1-2.5 0-.7-.1-1.5-.1-2.3 0-1-.1-2.1-.1-3.2v-.7c-1.3-31.3-2.9-99.2 4.1-170.1q1.5-15.45 3.6-30.9c-.6 0-18.2.1-34.3 40a206 206 0 0 0-7.3 21.5s-12.6 41.4 17.9 195.9a38.15 38.15 0 0 1-29 12.1s-13.5-60.3-20.6-172c0 0-11.5 7-11 31.2v2.3a12 12 0 0 0 .1 1.8c0 .7.1 1.5.1 2.4v.1c0 .6.1 1.2.1 1.9v.1c0 .7.1 1.4.1 2.2s.1 1.6.1 2.5c.9 16.5 3.6 49.6 11.1 105.1.4 2.7.7 5.5 1.1 8.3.2 1.7.5 3.5.7 5.2.4 3.1.9 6.3 1.4 9.5a52 52 0 0 1-13.2 1.3 45.25 45.25 0 0 1-18.7-4.1s-18.3-85.2-15.4-167.5a13.6 13.6 0 0 1 .2-2s-17.7.4-16.7 47.1c0 0 .6 39.1 13.8 109.1.6 3 1.1 6 1.7 9.2a57.3 57.3 0 0 0-12.7-6.5 75 75 0 0 0-11.1-3.2c-3-.7-6.2-1.2-9.6-1.7 0 0-72.1-121.3 17.3-293.1a9 9 0 0 1 .8-1.3 18 18 0 0 1 1.6-2.2 9.2 9.2 0 0 0-2.3-.2 30.46 30.46 0 0 0-24 11.4c-80 99.3-82.8 113.9-82.8 113.9-33.7 94.3-20.2 198.2-20.2 198.2s11.6-7.7 47.3-16.9a60.6 60.6 0 0 1 17.4-2.5 97 97 0 0 1 17.7 1.9c2.1.4 40.1 7.4 103.3 27.2 0 0 11.7 3.4 22.9 3.4a41.9 41.9 0 0 0 11.4-1.5s4.2-1.8 13.9-2c6.6-.1 36.9.1 122 41.3 0 0 8.8 4.3 21 10.5.8.5 3.4 1.9 4.4 2.4a36.5 36.5 0 0 0 6.4 2.8 27 27 0 0 0-.1-4.8" style="fill:#fff" transform="translate(-254.85)"/><path d="M1164.5 1599.8a31 31 0 0 0 5.3 1 74 74 0 0 0 8.1.6c15.9 0 30.6-5.6 30.6-5.6s-6.3-.3-15.7-.9c-8.4-.6-18.8-4.5-29.6-7.9a129.5 129.5 0 0 0-17.8-4.6c-1.7-.5-3.4-1.8-6.1-3.2 0 0-5.3-2.9-10.8-5.3-18.6-8-58.4-24.5-90-28.8a121.4 121.4 0 0 0-17.6-1s-20.1.4-32.6-2.4c0 0-11.7-2.6-27.2-6.1-24-5.6-59.8-14.4-88-20.7 0 0-14.8-2.9-26.7 2.4 0 0-19.6 8.3-48.6 22.6-4.1 2.1-6.9 2.2-13.1 9.5-55.4 27.7-14.4 30.9-14.4 30.9-36.7 40.5-29.2 44.7-29.2 44.7 4.6 2.3 19.6-8.2 19.6-8.2-8.9 46.6 19.4 94.3 19.4 94.3 3.1 4.8 6.9 2.8 6.9 2.8 4.8-2.5.6-12 .6-12-51.8-111.8 26.7-138.8 26.7-138.8a131 131 0 0 0-9.8 10c-.3 2-.7 4-1.1 6-3.6 17.6-9.2 35.6-9.2 35.6a148 148 0 0 1 19.9 2.8 191.9 191.9 0 0 0 7.6-48.2v-.8a8.6 8.6 0 0 0 2.7.5 12.9 12.9 0 0 0 5.1-1.2c0 1.5-.1 3.2-.2 5-1.3 16.4-7.3 44.8-7.3 44.8a131.5 131.5 0 0 1 17.9 1.9c5.9-24.7 5.5-49.1 5.4-53.6v-.8a13.6 13.6 0 0 0 2 .2 17.9 17.9 0 0 0 8.5-2.3c.2 2.2.3 4.4.3 6.7.2 21.8-6.2 48.9-6.2 48.9a66.6 66.6 0 0 1 11.6 11.7c12.5-33.5 13.6-61.1 13.7-66.3v-.9c4.1 4 10 4.1 10.7 4.1h.1c-.5 2.5-1 5.1-1.4 7.6a170.8 170.8 0 0 0-.8 43.2 85 85 0 0 1 14.7 8.9c-1.4-24.1 2.5-53.2 3.2-58.3a4.5 4.5 0 0 0 .1-.8 17.2 17.2 0 0 1 5.8-1.2 19.9 19.9 0 0 1 7.2 1.2c-.4 2.4-.7 4.8-1 7.1a164.9 164.9 0 0 0 .5 41.5 88.2 88.2 0 0 1 16.8 7.3 186.7 186.7 0 0 1 0-54.5 3.2 3.2 0 0 0 .1-.7 16.5 16.5 0 0 1 5.2-.8 19.74 19.74 0 0 1 8.4 1.9l-.9 6a154.8 154.8 0 0 0 .9 38.7 69.6 69.6 0 0 1 18 8c-4.5-33.3-1-56.4-.3-60.2a2.8 2.8 0 0 0 .1-.6 8.3 8.3 0 0 1 1.5-.4 23.6 23.6 0 0 1 5.5-.7 14.9 14.9 0 0 1 6 1.3 16.6 16.6 0 0 1 2.3 1.3q.15 3.45.3 6.6a266.4 266.4 0 0 0 5.7 41.7 104 104 0 0 1 18.2 6.8c-5.2-31-4.9-48.7-4.8-51.2v-.3c.6 0 1.2-.1 1.7-.1 8.3 0 12.5 3.8 12.5 3.8.6 2 1.3 3.9 2 5.8 8.4 21.7 23.6 39.3 23.6 39.3a128.6 128.6 0 0 1 24.3 4.5c-11.4-27.8-22.8-44.8-24.5-47.2a1.2 1.2 0 0 0-.2-.3c.7-.1 1.3-.3 2-.4a57 57 0 0 1 8-.6 87 87 0 0 1 11.1.8 7 7 0 0 1 .9.2 101 101 0 0 0 5.3 9.2c21.1 33 53.6 43.5 55.9 44.2-22.1-26.5-23.4-31.3-23.5-31.9v-.1a27.4 27.4 0 0 1 17.9 0c36.9 22.3 62.3 25.1 72.7 25.2a36 36 0 0 0 5.3-.3c-20.4-6.9-27.8-18.9-27.8-18.9" style="fill:#fff" transform="translate(-254.85)"/><path d="M1062.2 1533.8a110.2 110.2 0 0 0-27.1-4.1c-9.6 0-14.2 1.9-14.2 1.9a33.2 33.2 0 0 1-10.6 1.3c-11.2 0-22.8-3.5-22.8-3.5-63.2-19.7-103.2-26.8-105.3-27.2h-.1a70 70 0 0 0-15.8-1.5 76.6 76.6 0 0 0-17.7 2.1c-35.7 9.2-47.4 15.7-47.4 15.7-45.8 22.8-16.5 30.9-16.5 30.9 4.4-2.3 8.8-4.4 12.9-6.5 29-14.3 49.3-23.3 49.3-23.3 11.9-5.3 25.2-2.4 25.2-2.4 28.2 6.3 64.5 14.7 88.5 20.3 15.5 3.5 26.9 6.2 26.9 6.2 12.5 2.8 33.5 2.6 33.5 2.6a112 112 0 0 1 16.8 1.1c31.6 4.3 71.2 20.2 89.8 28.2 5.5 2.4 10.6 4.7 10.6 4.7a37.3 37.3 0 0 0 7.2 2.2 12 12 0 0 0 2.5.3c5.3.2 6.7-2.5 6.7-2.5.2-.3.4-.5.6-.8a5.76 5.76 0 0 1 2.3-1.3c5.1-1.3 14.9 1.9 21 4.2-70.8-38.6-116.3-48.6-116.3-48.6M1497 1235.9s-20.6-1.3-21.4 24.9c0 0-16.8 302.3-263 364.3-19.6 4.8-13.9 11.9-13.9 11.9 5.3 7.1 13.9 6.3 13.9 6.3s235.3.2 306.6-339.3c0 0 4-16.5 1.1-40.9 0 0-2.5-27.2-23.3-27.2M1464 1191.7c20 16.8 54.3 16.8 54.3 16.8-63.9-40.6-41.7-235.6-41.6-235.6 11-144.4-85.6-183.4-85.6-183.4 16.2.8 27.6-10.3 27.6-10.3-37.9-6.3-88.6-7.3-89.4-7.3 27.5 12.4 32 28.2 32 28.2-13.6-4.2-20.6-.5-20.6-.5 54.7 38.4 61.2 85 61.2 85 5.5 22 .6 38.7.6 38.7-11.8 60.2 37.8 231.6 37.8 231.6 7.5 25.1 23.7 36.8 23.7 36.8" style="fill:#200000" transform="translate(-254.85)"/><path d="M1327.2 1180.3s91.8-36.1 15.4-152.3c0 0-91.5-142.5-227.2-144.8a203.4 203.4 0 0 0-69.4 11.1c12.8 2.9 22.6 11.5 22.6 11.5-11.3-.3-22.5-.4-33.6-.4-112.4.1-214 14.9-214 14.9 9.2 3.7 13 6.9 13.2 7.1-2.9-.1-5.8-.1-8.7-.2-19.9-.4-39.6-.1-56.9.4-33.5 1-57.9 2.8-57.9 2.8a92.8 92.8 0 0 1 29.4 18.1c13.2-9.8 28.6-12.8 28.6-12.8a60.8 60.8 0 0 1 29.8 10.5c9.9-8.1 26.9-10.9 26.9-10.9 16 .7 27.8 10.7 27.8 10.7 1.4-7.2-5.1-18-5.1-18 15.9-2.7 29.4 9.1 29.4 9.1 15-17.4 32.9-15.1 32.9-15.1 17.1 2.1 21.9 6 21.9 6s-28.1 15.4-67.4 42.2c0 0-32.2 21-77.2 28.2 0 0-96.7-3.6-167.8-41.9 0 0-38.2-114.2-6.5-199.9 0 0 15.8 13.2 24.7 31.7 0 0 1.9-55.3-54.9-64.5.6.3 10 5.4 20.5 19.2 0 0-19-11.2-39.1-12-8.2-16.3 1.2-46.9 1.2-46.9 5.6-16.9 16.5-20.6 16.5-20.6 5.2-2.5-1.6-16-1.8-16.3a43.3 43.3 0 0 0-8.3 4.3 4.4 4.4 0 0 1-.7.4C539.1 674 546.2 733 546.2 733a141 141 0 0 0-21.9 9c-26.9-6.8-46-16.1-58.3-23.8-12.4-7.6-18-13.6-18-13.6s-5.1-5.4-11.5.1c-5.3 4.6-.4 9.2-.4 9.2 26 26.5 72.2 39.8 72.2 39.8a56.6 56.6 0 0 0-10.9 15.3 126.2 126.2 0 0 1-36.9-17.4c-4.6-3-8.5 2.3-8.5 2.3-5.2 6.3-1.3 8.6-1.3 8.6 15.8 11.8 41.9 21.4 41.9 21.4a89.1 89.1 0 0 0-.8 28.8c-33.2-9.6-51.4-33.3-51.4-33.3-4.9-6.4-11.3-1.5-11.3-1.5-6.5 5.2-.7 10.8-.7 10.8 28.6 31.4 66.7 41.4 66.7 41.4a183 183 0 0 0 6.8 21.4c.1.2.1.3.2.5 1.7 4.3 3.4 8.6 5.2 12.8 2.1 4.6 4.2 9.2 6.4 13.6 1.6 3.2 3.2 6.3 4.9 9.3.9 1.5 2.7 4.9 4.6 8.2 1.1 1.9 2.2 3.7 3.2 5.5 1.7 2.8 3.4 5.5 4.9 8-53.2 35.9-104.5 49.8-104.5 49.8-10.5 3.3-8.2 9-8.2 9 2.3 10.4 11.8 6.6 11.8 6.6 52.7-17.1 107.9-54.5 107.9-54.5.3.5 7 10.4 8.6 12 .9 1.3 3.3 10.5 4.9 12 14.9 13.3 40.1 26.8 57.1 33.9-3.1 7.4-6 14.9-7.2 24.3-.5 3.7-3.2 27.5 0 61.4 3.2 34.2 16.7 92.7 57.2 156.8.8-3.6 3.7-18.6.3-27.7 0 0-41.2-95.8-24.2-183.7 0 0 .1-7 5.3-20.3a540 540 0 0 0 54.4 15.6c-2.5 15.6-3.9 43.5-2.7 59.3 0 0 3.7 33.3 6.3 50.3 3.2 11.2 5.9 16.5 8.6 16.5h.1c2.9-.1 4.1-6.3 4.3-7 10.4-56.7 2-93.8.3-100.5 0 0-2.3-9-4.8-15.8a633 633 0 0 0 85.1 11.6c21.6-7.2 28.3-9.1 48.7-18.1-2.6 4.5-63.7 112.2 16 237.4.2-.3 8.7-16.6.6-41 0 0-50-113.7 34.7-227.5 21.9-11.8 39.8-23.7 43.9-26.4 12.1-8.2 30.6-17 35.7-19a212 212 0 0 1 27.2-7.9 189 189 0 0 1 22.2-3.3c5.2-.4 10-.7 14.4-.6h.6a176 176 0 0 1 18.2.9 73 73 0 0 1 10.2 1.6c26.4 6.3 48.1 21.9 64.9 38.9a228.7 228.7 0 0 1 42.3 60.5 8.3 8.3 0 0 0 1.9 2.6c7.5 7.6 27.1 3.7 27.1 3.7 2.3-21.3-10.1-41.8-28.2-59.8-39.6-39.6-106.6-67.9-107-68.1a224.6 224.6 0 0 1 50.3-.8c67.9 6.6 112.1 41.8 112.1 41.8a433 433 0 0 1 37.1 32.8c31.6 31.2 71.6 80.1 69.6 125.7-3.2 72.7-49.2 87-50.1 87.3 89.8 68.3 91.5 161.4 91.5 161.4.2 9.4 34 8.5 34 8.5 2.4-31.6-12.1-84.7-82.6-169.3M599.7 948.7s-23.2-6.5-41.5-24.6c0 0-18.9-17.4-39.2-59.1 0 0-16.3-29.5-15-74.1 0 0 1.4-40.6 42.8-41.2 10.6-.1 23.7 2.3 40.1 8.8 0 0-24.7 69.1 12.8 190.2" style="fill:#200000" transform="translate(-254.85)"/><path d="M856.6 1238.3c-67.2-139-6-245-3.4-249.5l.8-1.3-1.4.6c-20.3 9-41.6 17.2-63.3 24.4a696 696 0 0 1-91-14.5c-46.1-10.5-120-33.2-151.4-65.7-.9 59 4.6 112 16 155.4 9.1 34.8 22.1 64.2 38.7 87.6 28.2 39.8 58.5 48.3 58.8 48.3-.1-.2-1.3-2.5-1.4-2.7-33.2-67.8-44-122.8-47.2-157.1-3.2-33.9.3-54.7.9-58.2a82.2 82.2 0 0 0 22.4 3.8h.2a81 81 0 0 0 12.3-.5c-4.3 94.9 11.6 134.1 11.8 134.5l.4.9.5-.9c19.8-33.1 7.5-92.8 7.4-93.4-4.1-16-.6-23-.5-23.1 2.4-7.2.5-12.3-.6-14.4a59.5 59.5 0 0 0 20.3 1.2c4.8 5.4.6 18.2.5 18.3-6.9 26.1 10.9 82.2 10.9 82.2l.5-1.2c12.7-28.1 3.9-67.8 3.8-68.2-2.2-15.2 2.1-22.6 3.2-24.2a37 37 0 0 0 4.8 2.1c.4.1.7.3 1.1.4a71 71 0 0 0 15.3 3.8c1.6 10.4-2.2 25.6-2.3 25.7-3.8 16.3 16.2 49.8 17 51.2l.4-.8c6.5-12.4 4.3-27.8 4.3-27.9a148 148 0 0 1-2-20.2 136 136 0 0 1 1.7-25.4c13.6 2.6 27.3 1.2 30.7.8-9.3 24.2-11 50.3-4.9 77.5 4.9 22 14.8 44.7 29.4 67.7 24.9 39 57.1 66.6 57.4 66.8-.3-.4-2-3.8-2.1-4" style="fill:#fff" transform="translate(-254.85)"/><path d="M1024 77.1c-548.5 0-692.1 202.8-692.1 202.8v809c0 132.8 36 261.6 106.9 382.9 55.7 95.2 132.8 185.7 229.3 269.1 231.4 184.7 355.9 225.3 355.9 225.3s124.5-40.6 355.9-225.3c96.5-83.4 173.6-173.9 229.3-269.1 70.9-121.3 106.9-250.1 106.9-382.9v-809S1572.5 77.1 1024 77.1zm627.9 1011.8c0 531.6-627.9 808-627.9 808s-627.9-276.4-627.9-808V304.6S543.8 141.3 1024 141.3s627.9 163.3 627.9 163.3z" style="fill:#fff;stroke:#fff;stroke-width:2px;stroke-miterlimit:10" transform="translate(-254.85)"/></svg>