<svg xmlns="http://www.w3.org/2000/svg" width="995.67017mm" height="400mm" viewBox="0 0 995.67017 400"><defs><clipPath id="a" clipPathUnits="userSpaceOnUse"><path d="M0 840h592V0H0Z"/></clipPath><clipPath id="b" clipPathUnits="userSpaceOnUse"><path d="M514.504 486.899h-96.591v-39.44s95.017 34.936 95.798 35.227c.584.226 1.031-.182.791-.841l-35.218-95.767h39.445s-.002 93.261 0 96.261c0 2.576-1.717 4.56-4.225 4.56"/></clipPath><linearGradient id="c" x1="0" x2="1" y1="0" y2="0" gradientTransform="scale(-107.03148 107.03148) rotate(-46.809 2.852 7.853)" gradientUnits="userSpaceOnUse" spreadMethod="pad"><stop offset="0" style="stop-opacity:1;stop-color:#fbbc09"/><stop offset="0.29809716" style="stop-opacity:1;stop-color:#f79210"/><stop offset="0.404494" style="stop-opacity:1;stop-color:#f79210"/><stop offset="1" style="stop-opacity:1;stop-color:#f1471d"/></linearGradient></defs><g clip-path="url(#a)" transform="matrix(2.25693 0 0 -2.25693 -175.064 1098.896)"><g clip-path="url(#b)"><path d="M514.504 486.899h-96.591v-39.44s95.017 34.936 95.798 35.227c.584.226 1.031-.182.791-.841l-35.218-95.767h39.445s-.002 93.261 0 96.261c0 2.576-1.717 4.56-4.225 4.56" style="fill:url(#c);stroke:none"/></g><path d="M513.711 482.686c-.781-.291-95.798-35.227-95.798-35.227H474.1c3.325-.003 5.189-1.776 5.184-5.479.005-3.86 0-55.902 0-55.902l35.218 95.767c.24.659-.207 1.067-.791.841" style="fill:#1c63b7;fill-opacity:1;fill-rule:nonzero;stroke:none"/><path d="M138.73 383.719h-10.79c.983 4.169 3.191 13.885 4.346 19.337 1.394 6.59-2.347 6.159-4.52 6.159H86.661c-.808 0-1.436-.457-.992-1.412.43-.932 3.235-3.472 5.692-3.472h30.458l-.627-20.612H78.709c-.81 0-1.438-.455-.995-1.41.432-.934 3.236-3.469 5.695-3.469h55.321c1.828 0 2.743.81 2.743 2.437 0 1.627-.915 2.442-2.743 2.442M175.072 345.759c-4.921 0-8.912 4.645-8.912 10.374 0 5.722 3.991 10.365 8.912 10.365 4.922 0 8.911-4.643 8.911-10.365 0-5.729-3.989-10.374-8.911-10.374m-5.444 30.028h10.892V370.5a22.49 22.49 0 0 1-5.448.664c-1.893 0-3.724-.234-5.444-.664zm34.581 4.879h-60.021c-.81 0-1.435-.458-.995-1.409.429-.933 3.235-3.47 5.694-3.47h11.331v-10.738c-2.271-2.5-3.63-5.575-3.63-8.916 0-8.305 8.277-15.033 18.484-15.033 10.211 0 18.486 6.728 18.486 15.033 0 3.341-1.358 6.416-3.629 8.916v10.738h14.28c1.828 0 2.743.815 2.743 2.438 0 1.628-.915 2.441-2.743 2.441M175.072 408.391c4.891 0 8.855-4.615 8.855-10.301 0-5.693-3.964-10.304-8.855-10.304-4.889 0-8.853 4.611-8.853 10.304 0 5.686 3.964 10.301 8.853 10.301m0-25.238c10.146 0 18.367 6.69 18.367 14.937s-8.221 14.935-18.367 14.935c-10.141 0-18.363-6.688-18.363-14.935s8.222-14.937 18.363-14.937M214.287 408.508c2.687-1.023 2.958-2.082 2.958-4.823v-18.708a4.962 4.962 0 0 1 4.966-4.961h35.737c1.83 0 2.744.813 2.744 2.434 0 1.633-.914 2.446-2.744 2.446l-31.289.001v7.74h29.623c1.829 0 2.743.814 2.743 2.438 0 1.63-.914 2.445-2.743 2.445h-29.623v7.574h30.453c1.831 0 2.746.812 2.746 2.439 0 1.63-.915 2.442-2.746 2.442H214.62c-1.175 0-1.24-1.121-.333-1.467M269.597 372.187c0 1.629-.914 2.444-2.747 2.444h-60.018c-.809 0-1.435-.455-.994-1.412.432-.934 3.235-3.474 5.69-3.474h21.485v-26.709c0-.485.393-.882.878-.882h3.992a4.544 4.544 0 0 1 4.541 4.545v23.046h24.426c1.833 0 2.747.818 2.747 2.442M331.917 388.098h-8.108v23.283a.883.883 0 0 1-.883.881h-11.155c-1.175 0-1.241-1.123-.337-1.469 2.687-1.023 2.962-2.082 2.962-4.822v-62.935c0-.485.392-.882.883-.882h3.989a4.544 4.544 0 0 1 4.541 4.545v36.52h8.108c1.828 0 2.743.812 2.743 2.437 0 1.631-.915 2.442-2.743 2.442" style="fill:#1d3c85;fill-opacity:1;fill-rule:nonzero;stroke:none"/><path d="M295.117 382.768c3.402 4.477 8.972 14.939 10.209 18.289.815 2.207-.099 3.583-2.362 3.583h-30.09c-.807 0-1.435-.455-.993-1.41.437-.932 3.229-3.469 5.692-3.469H292.953c-3.306-12.202-14.111-27.346-24.51-37.335-1.974-1.985-.458-3.292 2.209-1.901 7.335 3.819 16.662 12.61 21.569 18.432 2.211-2.053 8.294-9.573 11.004-15.156 1.783-3.686 3.699-4.546 5.313-3.299 1.359 1.044 1.73 9.412-.903 12.726-2.081 2.616-10.358 8.055-12.518 9.54M121.129 349.256H99.578v16.365h21.551zm8.529 21.249h-42.12c-1.172 0-1.236-1.123-.334-1.468 2.69-1.019 2.964-2.082 2.964-4.822v-14.879a4.963 4.963 0 0 1 4.963-4.965h30.445a4.963 4.963 0 0 1 4.965 4.965v20.291a.882.882 0 0 1-.883.878M380.188 349.256h-19.049v8.375h19.049zm8.53 22.083h-11.155c-1.178 0-1.241-1.123-.333-1.47 2.682-1.021 2.958-2.081 2.958-4.823v-2.534h-19.049v7.115a.882.882 0 0 1-.88.878h-11.156c-1.176 0-1.24-1.123-.339-1.468 2.685-1.019 2.965-2.082 2.965-4.822v-14.879a4.962 4.962 0 0 1 4.961-4.965h27.945a4.962 4.962 0 0 1 4.963 4.965v21.117a.882.882 0 0 1-.88.886M381.333 384.836h-10.054c.226.942.348 1.92.348 2.926 0 .711-.078 1.404-.191 2.089h9.897zm-25.696-6.168c-3.639 0-6.585 4.072-6.585 9.092 0 5.019 2.946 9.086 6.585 9.086 3.64 0 6.588-4.067 6.588-9.086 0-5.02-2.948-9.092-6.588-9.092m34.224 33.594h-11.16c-1.168 0-1.236-1.123-.334-1.469 2.69-1.023 2.966-2.082 2.966-4.822v-11.235h-11.819c-1.086 1.668-2.553 3.112-4.293 4.262h8.225c1.831 0 2.745.815 2.745 2.44 0 1.627-.914 2.443-2.745 2.443h-12.609v6.89a.879.879 0 0 1-.883.881h-11.153c-1.174 0-1.239-1.123-.338-1.468 2.689-1.021 2.964-2.079 2.964-4.821v-1.482h-16.089c-.805 0-1.438-.452-.994-1.412.431-.933 3.233-3.471 5.694-3.471h6.016c-3.886-2.568-6.409-6.64-6.409-11.236 0-7.77 7.158-14.069 15.992-14.069 5.546 0 10.429 2.49 13.304 6.26h12.392v-5.213a.88.88 0 0 1 .878-.886h3.988a4.545 4.545 0 0 1 4.543 4.545v32.982a.882.882 0 0 1-.881.881M420.381 376.16c-3.641 0-6.583 4.07-6.583 9.089 0 5.017 2.942 9.089 6.583 9.089 3.635 0 6.587-4.072 6.587-9.089 0-5.019-2.952-9.089-6.587-9.089m32.33 36.102h-11.158c-1.174 0-1.241-1.123-.334-1.469 2.686-1.023 2.96-2.082 2.96-4.822v-36.143c-5.179-3.844-12.868-4.492-17.95-4.492h-1.141v6.47c6.532 1.768 11.282 7.114 11.282 13.444 0 5.137-3.141 9.617-7.818 12.07h9.427c1.828 0 2.743.813 2.743 2.442 0 1.627-.915 2.44-2.743 2.44h-12.606v6.892a.88.88 0 0 1-.883.881h-11.153c-1.175 0-1.241-1.121-.342-1.467 2.694-1.023 2.964-2.082 2.964-4.823v-1.483h-16.088c-.812 0-1.433-.454-.994-1.409.432-.934 3.229-3.473 5.689-3.473h7.641c-4.677-2.453-7.816-6.933-7.816-12.07 0-6.33 4.746-11.676 11.284-13.444v-6.47h-18.394c-.81 0-1.435-.455-.996-1.41.434-.934 3.235-3.477 5.694-3.477h24.25c3.966 0 12.644.627 17.95 3.801v-21.214c0-.485.393-.882.884-.882h3.987a4.543 4.543 0 0 1 4.541 4.545v64.682a.879.879 0 0 1-.88.881M97.276 326.009h-2.945s-5.061-6.522-5.333-6.877v6.877h-2.866v-16.087h2.866v7.556c.275-.382 5.499-7.556 5.499-7.556h3.42s-6.489 8.61-6.582 8.731l5.941 7.356M103.134 310.84c-1.551 0-2.303 1.525-2.303 4.664 0 3.136.752 4.66 2.303 4.66 1.566 0 2.328-1.524 2.328-4.66 0-3.139-.762-4.664-2.328-4.664m0 10.495c-3.381 0-5.169-2.017-5.169-5.831 0-3.818 1.788-5.835 5.169-5.835 3.396 0 5.19 2.017 5.19 5.835 0 3.814-1.794 5.831-5.19 5.831M112.904 318.525v2.558h-2.647v-11.161h2.647v5.119c0 2.959 1.463 3.608 3.657 3.674l.103.004v2.626l-.114-.01c-1.975-.151-2.853-1.342-3.646-2.81M120.026 317.905c.059.545.389 2.259 2.17 2.259 1.778 0 1.994-1.621 2.011-2.259zm2.267 3.43c-3.317 0-4.999-1.8-4.999-5.351 0-4.011 2.13-6.315 5.842-6.315 1.468 0 2.386.241 3.391.63l.068.024v1.287l-.153-.068a5.187 5.187 0 0 0-2.149-.448c-3.389 0-4.317 3.573-4.347 5.55h6.865v.1c0 3.049-1.521 4.591-4.518 4.591M134.356 313.87c0-1.8-1.469-2.548-2.253-2.548-.76 0-1.29.631-1.29 1.533 0 1.884 2.554 2.122 3.543 2.193zm-1.506 7.465c-3.78 0-4.399-1.846-4.518-3.456l-.007-.108h2.768l.008.093c.106 1.419.436 2.3 1.749 2.3 1.506 0 1.506-1.922 1.506-3.073v-.871c-1.605-.071-6.408-.301-6.408-3.709 0-1.594 1.423-2.842 3.237-2.842 1.787 0 2.772 1.037 3.171 1.598v-1.345h2.649v7.169c0 2.148-.32 4.244-4.155 4.244M147.267 309.922h2.864v7.505h5.518v1.723h-5.518v5.137h5.832v1.722h-8.696zM157.389 321.083v-11.161h2.644v11.161h-.104zM157.292 326.009v-2.506h2.841v2.506h-.107zM169.546 321.335c-1.192 0-2.82-.483-3.968-2.637v2.385h-2.646v-11.161h2.646v4.637c0 1.518.751 4.846 2.978 4.846.94 0 1.34-.756 1.34-2.521v-6.962h2.648v8.112c0 1.644-.926 3.301-2.998 3.301M180.959 313.87c0-1.8-1.469-2.548-2.254-2.548-.761 0-1.293.631-1.293 1.533 0 1.884 2.555 2.122 3.547 2.193zm-1.508 7.465c-3.778 0-4.398-1.846-4.518-3.456l-.007-.108h2.768l.005.093c.107 1.419.438 2.3 1.752 2.3 1.508 0 1.508-1.922 1.508-3.073v-.871c-1.608-.071-6.412-.301-6.412-3.709 0-1.594 1.423-2.842 3.24-2.842a3.806 3.806 0 0 1 3.172 1.598v-1.345h2.648v7.169c0 2.148-.322 4.244-4.156 4.244M192.923 321.335c-1.192 0-2.819-.483-3.968-2.637v2.385h-2.645v-11.161h2.645v4.637c0 1.518.753 4.846 2.981 4.846.937 0 1.338-.756 1.338-2.521v-6.962h2.647v8.112c0 1.644-.926 3.301-2.998 3.301M202.805 321.335c-3.209 0-4.976-1.915-4.976-5.395 0-4.044 2.084-6.271 5.864-6.271.995 0 2.037.186 3.1.56l.071.021v1.305l-.146-.056c-.73-.275-1.387-.405-2.01-.405-2.774 0-4.015 2.826-4.015 5.629 0 2.09.792 3.441 2.015 3.441 1.368 0 1.557-1.323 1.557-2.75v-.102h2.766v.102c0 2.639-1.383 3.921-4.226 3.921M208.458 321.083v-11.161h2.646v11.161h-.106zM208.361 323.503h2.84v2.506h-2.84zM219.666 313.87c0-1.8-1.471-2.548-2.256-2.548-.759 0-1.293.631-1.293 1.533 0 1.884 2.556 2.122 3.549 2.193zm-1.511 7.465c-3.777 0-4.396-1.846-4.516-3.456l-.008-.108h2.769l.007.093c.106 1.419.436 2.3 1.748 2.3 1.511 0 1.511-1.922 1.511-3.073v-.871c-1.609-.071-6.413-.301-6.413-3.709 0-1.619 1.394-2.842 3.24-2.842a3.812 3.812 0 0 1 3.173 1.598v-1.345h2.644v7.169c0 2.148-.32 4.244-4.155 4.244M225.136 309.922h2.646v16.087h-2.646zM241.22 326.009h-2.863v-16.087h2.863zM251.18 316.884v-6.962h2.646v8.112c0 1.644-.927 3.301-2.998 3.301-1.191 0-2.819-.483-3.968-2.637v2.385h-2.648v-11.161h2.648v4.637c0 1.518.749 4.846 2.976 4.846.942 0 1.344-.756 1.344-2.521M265.681 321.083h-2.472l-2.648-7.686-2.911 7.686h-2.809l4.445-11.161h2.269zM270.759 320.164c1.778 0 1.992-1.621 2.009-2.259h-4.182c.061.545.392 2.259 2.173 2.259m4.328-9.865.066.024v1.287l-.152-.068a5.171 5.171 0 0 0-2.147-.448c-3.388 0-4.316 3.573-4.346 5.55h6.864v.1c0 3.049-1.52 4.591-4.517 4.591-3.315 0-4.999-1.8-4.999-5.351 0-4.011 2.128-6.315 5.843-6.315 1.466 0 2.384.241 3.388.63M279.857 314.559c1.113-.613 2.074-1.144 2.074-1.933 0-.59-.491-1.28-1.869-1.28-1.404 0-2.607.795-3.122 1.133l-.166.111v-2.409l.072-.025c.459-.145 1.533-.487 3.094-.487 2.842 0 4.471 1.246 4.471 3.415 0 2.058-1.795 3.02-3.237 3.791-1.084.582-2.017 1.082-2.017 1.872 0 .774.825 1.05 1.531 1.05 1.095 0 1.963-.504 2.833-1.064l.165-.107v2.247l-.15.041c-.443.128-1.479.421-2.654.421-3.048 0-4.133-1.684-4.133-3.255 0-1.811 1.652-2.719 3.108-3.521M287.137 312.557c0-1.996 1.147-2.888 3.72-2.888.655 0 1.28.057 1.714.164l.081.019v1.568l-.148-.059c-.289-.118-.654-.175-1.092-.175-1.474 0-1.627.698-1.627 2.29v6.206h3.133v1.401h-3.133v4.059l-.162-.091-2.486-1.434v-2.534h-1.832v-1.401h1.832zM307.044 317.091v-7.169h2.646v7.538c0 2.607-.981 3.875-2.998 3.875-2.14 0-3.016-1.632-3.451-2.533-.188 1.302-1.122 2.533-2.912 2.533-2.077 0-3.059-1.71-3.41-2.523v2.271h-2.648v-11.161h2.648v4.637c0 .494.066 4.846 2.397 4.846 1.122 0 1.34-.924 1.34-2.521v-6.962h2.65v4.658c0 .049.028 4.825 2.447 4.825.918 0 1.291-.67 1.291-2.314M316.503 320.164c1.778 0 1.992-1.621 2.011-2.259h-4.183c.06.545.387 2.259 2.172 2.259m.939-10.495c1.467 0 2.383.241 3.389.63l.065.024v1.287l-.149-.068a5.195 5.195 0 0 0-2.15-.448c-3.388 0-4.316 3.573-4.344 5.55h6.86v.1c0 3.049-1.518 4.591-4.516 4.591-3.316 0-4.998-1.8-4.998-5.351 0-4.011 2.13-6.315 5.843-6.315M325.648 314.559c0 1.518.749 4.846 2.974 4.846.941 0 1.343-.756 1.343-2.521v-6.962h2.647v8.112c0 1.644-.927 3.301-2.997 3.301-1.194 0-2.825-.483-3.967-2.637v2.385h-2.651v-11.161h2.651zM341.868 319.682v1.401h-3.136v4.059l-.161-.091-2.484-1.434v-2.534h-1.833v-1.401h1.833v-7.125c0-1.996 1.149-2.888 3.722-2.888.651 0 1.274.057 1.712.164l.08.019v1.568l-.152-.059c-.283-.118-.649-.175-1.09-.175-1.471 0-1.627.698-1.627 2.29v6.206zM353.972 316.361c.077.245 2.097 6.543 2.242 6.991.141-.448 2.14-6.746 2.218-6.991zm3.785 9.645h-2.825l-5.614-16.084h2.564s1.472 4.577 1.519 4.717h5.578l1.516-4.717h2.976l-5.638 16.084zM368.532 316.873c-1.084.58-2.016 1.084-2.016 1.873 0 .775.823 1.047 1.53 1.047 1.095 0 1.964-.5 2.834-1.061l.167-.107v2.246l-.151.041c-.446.126-1.48.423-2.657.423-3.046 0-4.13-1.684-4.13-3.255 0-1.812 1.651-2.723 3.107-3.524 1.112-.613 2.073-1.141 2.073-1.934 0-.588-.488-1.277-1.869-1.277-1.234 0-2.27.57-3.121 1.131l-.166.109v-2.408l.072-.021c.459-.146 1.534-.489 3.094-.489 2.841 0 4.47 1.246 4.47 3.418 0 2.053-1.795 3.016-3.237 3.788M377.69 316.873c-1.082.58-2.016 1.084-2.016 1.873 0 .775.824 1.047 1.532 1.047 1.093 0 1.961-.5 2.83-1.061l.168-.107v2.246l-.152.043c-.445.124-1.482.421-2.656.421-3.045 0-4.131-1.684-4.131-3.255 0-1.812 1.652-2.723 3.108-3.524 1.111-.613 2.076-1.141 2.076-1.934 0-.588-.491-1.277-1.872-1.277-1.23 0-2.265.571-3.121 1.133l-.166.107v-2.408l.072-.021c.46-.146 1.54-.489 3.095-.489 2.84 0 4.47 1.246 4.47 3.418 0 2.053-1.794 3.016-3.237 3.788M387.279 310.838c-1.551 0-2.305 1.524-2.305 4.662 0 3.139.754 4.665 2.305 4.665 1.564 0 2.327-1.526 2.327-4.665 0-3.138-.763-4.662-2.327-4.662m0 10.497c-3.379 0-5.169-2.017-5.169-5.835 0-3.815 1.79-5.833 5.169-5.833 3.399 0 5.193 2.018 5.193 5.833 0 3.818-1.794 5.835-5.193 5.835M398.534 321.335c-3.209 0-4.974-1.916-4.974-5.398 0-4.044 2.083-6.27 5.866-6.27.995 0 2.035.187 3.097.559l.07.024v1.303l-.145-.055c-.742-.277-1.381-.408-2.012-.408-2.772 0-4.013 2.828-4.013 5.63 0 2.092.79 3.445 2.013 3.445 1.369 0 1.557-1.324 1.557-2.755v-.1h2.769v.1c0 2.639-1.383 3.925-4.228 3.925M404.091 326.006v-2.504h2.839v2.504h-.106zM404.187 321.082v-11.16h2.646v11.16h-.107zM415.394 313.867c0-1.8-1.471-2.549-2.256-2.549-.759 0-1.289.635-1.289 1.535 0 1.887 2.553 2.122 3.545 2.191zm-1.509 7.468c-3.775 0-4.396-1.848-4.516-3.457l-.008-.107h2.768l.007.091c.108 1.42.437 2.303 1.749 2.303 1.509 0 1.509-1.925 1.509-3.076v-.87c-1.616-.073-6.412-.302-6.412-3.711 0-1.62 1.394-2.841 3.242-2.841a3.811 3.811 0 0 1 3.17 1.597v-1.342h2.649v7.167c0 2.146-.321 4.246-4.158 4.246M424.115 325.14l-.162-.093-2.486-1.434v-2.531h-1.832v-1.4h1.832v-7.129c0-1.996 1.147-2.886 3.721-2.886.654 0 1.278.059 1.713.164l.081.02v1.568l-.148-.062c-.283-.116-.652-.176-1.09-.176-1.473 0-1.629.7-1.629 2.292v6.209h3.135v1.4h-3.135zM428.721 321.082v-11.16h2.648v11.16h-.105zM428.626 326.006v-2.504h2.839v2.504h-.105zM438.612 310.838c-1.548 0-2.302 1.524-2.302 4.662 0 3.139.754 4.665 2.302 4.665 1.566 0 2.329-1.526 2.329-4.665 0-3.138-.763-4.662-2.329-4.662m0 10.497c-3.38 0-5.167-2.017-5.167-5.835 0-3.815 1.787-5.833 5.167-5.833 3.398 0 5.194 2.018 5.194 5.833 0 3.818-1.796 5.835-5.194 5.835M452.349 321.335c-1.193 0-2.82-.482-3.966-2.641v2.388h-2.645v-11.16h2.645v4.637c0 1.515.749 4.845 2.979 4.845.94 0 1.341-.755 1.341-2.523v-6.959h2.646v8.108c0 1.646-.927 3.305-3 3.305" style="fill:#1d3c85;fill-opacity:1;fill-rule:nonzero;stroke:none"/></g></svg>