<svg xmlns="http://www.w3.org/2000/svg" xml:space="preserve" width="885.8338" height="400" viewBox="0 0 885.83379 400"><path d="M0 0h-.416" style="fill:none;stroke:#4f8fcc;stroke-width:.233;stroke-linecap:butt;stroke-linejoin:miter;stroke-miterlimit:4;stroke-dasharray:none;stroke-opacity:1" transform="matrix(3.95165 0 0 -3.95165 752.04 203.75)"/><path d="M0 0h.416" style="fill:none;stroke:#4f8fcc;stroke-width:.233;stroke-linecap:butt;stroke-linejoin:miter;stroke-miterlimit:4;stroke-dasharray:none;stroke-opacity:1" transform="matrix(3.95165 0 0 -3.95165 750.398 248.263)"/><path d="M0 0h.416" style="fill:none;stroke:#4f8fcc;stroke-width:.233;stroke-linecap:butt;stroke-linejoin:miter;stroke-miterlimit:4;stroke-dasharray:none;stroke-opacity:1" transform="matrix(3.95165 0 0 -3.95165 750.398 319.54)"/><path d="M0 0v-.416" style="fill:none;stroke:#4f8fcc;stroke-width:.233;stroke-linecap:butt;stroke-linejoin:miter;stroke-miterlimit:4;stroke-dasharray:none;stroke-opacity:1" transform="matrix(3.95165 0 0 -3.95165 752.04 317.898)"/><path d="M210.054 282.264h24.38v-36.66h-24.38z" style="fill:#8ec31f;fill-opacity:1;fill-rule:nonzero;stroke:none;stroke-width:3.33421" transform="matrix(1.18519 0 0 -1.18519 -125.817 493.973)"/><path d="M173.658 326.782h24.363V290.13h-24.363Z" style="fill:#00a1e9;fill-opacity:1;fill-rule:nonzero;stroke:none;stroke-width:3.33421" transform="matrix(1.18519 0 0 -1.18519 -125.817 493.973)"/><path d="M210.054 371.337h24.38v-36.673h-24.38z" style="fill:#004a9b;fill-opacity:1;fill-rule:nonzero;stroke:none;stroke-width:3.33421" transform="matrix(1.18519 0 0 -1.18519 -125.817 493.973)"/><path d="m0 0 .016.15H.013l18.119 16.609c.237.234.95.946.706 1.607-.163.414-.615.654-1.382.699H9.713L-8.144 2.296C-8.847 1.64-9.229.774-9.217-.146c.002-.915.393-1.782 1.102-2.426l17.82-16.341 7.696-.008h.007c.29.008 1.167.037 1.43.654.17.4.016.88-.495 1.455z" style="fill:#595757;fill-opacity:1;fill-rule:nonzero;stroke:none" transform="matrix(3.95165 0 0 -3.95165 177.893 128.672)"/><path d="M0 0h-7.639c-2.299 0-3.465 1.142-3.465 3.391v11.842h10.027c.441 0 .801.358.801.799v2.724c0 .442-.36.8-.801.8h-10.027v6.581a.984.984 0 0 1-.983.984h-4.866a.986.986 0 0 1-.983-.984V3.391c0-4.668 3.574-7.691 9.104-7.691H0c.439 0 .8.358.8.803v2.693A.804.804 0 0 1 0 0" style="fill:#595757;fill-opacity:1;fill-rule:nonzero;stroke:none" transform="matrix(3.95165 0 0 -3.95165 627.803 186.303)"/><path d="M0 0c-3.072 0-4.448 1.856-4.448 3.694 0 1.844 1.376 3.7 4.448 3.7h11.458V0Zm8.33 22.527H-7.479a.801.801 0 0 1-.801-.797v-2.752c0-.445.361-.804.801-.804H7.038c2.59 0 4.538-1.445 4.538-3.362v-2.106h-13.83c-6.423 0-8.503-5.231-8.503-7.761V3.28c0-3.978 3.65-8.234 9.075-8.234h20.179v19.795c0 4.457-4.274 7.686-10.167 7.686" style="fill:#595757;fill-opacity:1;fill-rule:nonzero;stroke:none" transform="matrix(3.95165 0 0 -3.95165 463.628 184.172)"/><path d="M0 0c-3.078 0-4.451 1.856-4.451 3.694 0 1.844 1.373 3.7 4.451 3.7h11.454V0Zm8.333 22.532H-7.479a.802.802 0 0 1-.801-.802v-2.752c0-.445.362-.804.801-.804H7.04c2.584 0 4.536-1.442 4.536-3.357v-2.111H-2.255c-6.425 0-8.502-5.231-8.502-7.761V3.28c0-3.978 3.649-8.234 9.075-8.234h20.179v19.795c0 4.459-4.275 7.691-10.164 7.691" style="fill:#595757;fill-opacity:1;fill-rule:nonzero;stroke:none" transform="matrix(3.95165 0 0 -3.95165 678.947 184.172)"/><path d="M0 0c-4.763 0-7.173 1.844-7.173 5.483v6.4c0 3.633 2.41 5.477 7.173 5.477h9.189V0Zm15.002 30.172h-4.828a.986.986 0 0 1-.985-.981v-6.734H-.995c-8.188 0-13.273-4.305-13.273-11.23V6.14c0-6.931 5.085-11.233 13.273-11.233h16.98v34.284a.983.983 0 0 1-.983.981" style="fill:#595757;fill-opacity:1;fill-rule:nonzero;stroke:none" transform="matrix(3.95165 0 0 -3.95165 344.086 183.335)"/><path d="M0 0c0 .771.637 1.401 1.418 1.401h.203c.783 0 1.42-.63 1.42-1.401v-1.626c0-.768-.637-1.389-1.42-1.389h-.203C.637-3.015 0-2.394 0-1.626Zm1.038-4.487h.959c1.946 0 3.467 1.449 3.467 3.297v.76a3.234 3.234 0 0 1-1.573 2.773l-.099.064h2.472c.056 0 .098.045.098.106V3.82c0 .057-.042.104-.098.104h-3.39V5.89c0 .06-.043.102-.101.102H.292c-.059 0-.105-.042-.105-.102V3.924h-3.385a.105.105 0 0 1-.103-.104V2.513c0-.061.048-.106.103-.106h2.445l-.101-.064A3.236 3.236 0 0 1-2.424-.43v-.76c0-1.848 1.522-3.297 3.462-3.297" style="fill:#595757;fill-opacity:1;fill-rule:nonzero;stroke:none" transform="matrix(3.95165 0 0 -3.95165 133.358 272.772)"/><path d="M0 0c0 .829.686 1.507 1.53 1.507h.218c.843 0 1.53-.678 1.53-1.507v-1.28c0-.823-.687-1.494-1.53-1.494H1.53C.686-2.774 0-2.103 0-1.28Zm1.156-4.087h.96c1.942 0 3.465 1.446 3.465 3.293v.314c0 1.849-1.523 3.3-3.465 3.3h-.96c-1.94 0-3.464-1.451-3.464-3.3v-.314c0-1.847 1.524-3.293 3.464-3.293" style="fill:#595757;fill-opacity:1;fill-rule:nonzero;stroke:none" transform="matrix(3.95165 0 0 -3.95165 709.898 260.07)"/><path d="M0 0c0-.88-.724-1.589-1.617-1.589h-.23c-.895 0-1.62.709-1.62 1.589v3.378c0 .884.725 1.595 1.62 1.595h.23C-.724 4.973 0 4.262 0 3.378Zm-1.188 6.664h-1.097c-2.221 0-3.961-1.661-3.961-3.777V.493c0-2.116 1.74-3.769 3.961-3.769h1.097c2.227 0 3.967 1.653 3.967 3.769v2.394c0 2.116-1.74 3.777-3.967 3.777" style="fill:#595757;fill-opacity:1;fill-rule:nonzero;stroke:none" transform="matrix(3.95165 0 0 -3.95165 343.46 277.061)"/><path d="M0 0a.104.104 0 0 1-.101.102h-2.651v3.886a.101.101 0 0 1-.103.102h-2.484a.102.102 0 0 1-.103-.102V-8.516c0-.057.045-.105.103-.105h2.484c.059 0 .103.048.103.105v7.077h2.651c.054 0 .101.047.101.103z" style="fill:#595757;fill-opacity:1;fill-rule:nonzero;stroke:none" transform="matrix(3.95165 0 0 -3.95165 185.972 265.996)"/><path d="M0 0h-7.797c-.089 0-.163.078-.163.173v3.065c0 .06-.047.107-.105.107h-2.485c-.056 0-.1-.047-.1-.107V.329c0-1.125.73-1.847 1.863-1.847H0c.056 0 .104.046.104.104v1.31A.105.105 0 0 1 0 0" style="fill:#595757;fill-opacity:1;fill-rule:nonzero;stroke:none" transform="matrix(3.95165 0 0 -3.95165 177.03 311.883)"/><path d="M0 0h-2.385c-.064 0-.09.026-.101.048-.017.031-.012.073.015.116.326.549.592 1.728.592 2.623v2.625c0 .629-.499 1.143-1.114 1.143h-10.029a.104.104 0 0 1-.102-.102V5.14c0-.058.047-.106.102-.106h8.289a.165.165 0 0 0 .164-.167V2.726c0-.723-.025-1.774-.281-2.575A.229.229 0 0 0-5.056 0h-9.84A.105.105 0 0 1-15-.105v-1.312c0-.058.046-.107.104-.107h6.257v-2.842h-4.441a.105.105 0 0 1-.106-.102v-1.315c0-.055.048-.104.106-.104h8.305c.096 0 .17-.081.17-.172v-4.4a.1.1 0 0 1 .103-.101h2.483a.1.1 0 0 1 .101.101v4.949c0 .63-.503 1.144-1.117 1.144h-2.912v2.842H0c.055 0 .101.049.101.107v1.312A.104.104 0 0 1 0 0" style="fill:#595757;fill-opacity:1;fill-rule:nonzero;stroke:none" transform="matrix(3.95165 0 0 -3.95165 245.42 276.226)"/><path d="M0 0h-2.339a.104.104 0 0 1-.102-.106v-4.593h-3.016a.106.106 0 0 1-.104-.106v-1.312c0-.054.049-.102.104-.102h3.016v-8.561c0-.059.044-.107.102-.107H0c.058 0 .104.048.104.107V-.106A.106.106 0 0 1 0 0" style="fill:#595757;fill-opacity:1;fill-rule:nonzero;stroke:none" transform="matrix(3.95165 0 0 -3.95165 292.54 249.913)"/><path d="M0 0h-3.531a.168.168 0 0 0-.167.168v6.054c0 .095.075.169.167.169h3.346c.056 0 .102.048.102.109v1.332a.106.106 0 0 1-.102.105h-6.054a.106.106 0 0 1-.105-.105V.284c0-1.115.717-1.802 1.863-1.802H0c.055 0 .103.043.103.103v1.31A.103.103 0 0 1 0 0" style="fill:#595757;fill-opacity:1;fill-rule:nonzero;stroke:none" transform="matrix(3.95165 0 0 -3.95165 277.099 283.828)"/><path d="M0 0h-2.342c-.055 0-.098-.049-.098-.106v-16.677c0-.06.043-.105.098-.105H0c.058 0 .102.045.102.105V-.106A.104.104 0 0 1 0 0" style="fill:#595757;fill-opacity:1;fill-rule:nonzero;stroke:none" transform="matrix(3.95165 0 0 -3.95165 308.178 249.913)"/><path d="M0 0h-2.486c-.051 0-.101-.049-.101-.106v-16.677c0-.06.05-.105.101-.105H0c.058 0 .106.045.106.105V-.106A.107.107 0 0 1 0 0" style="fill:#595757;fill-opacity:1;fill-rule:nonzero;stroke:none" transform="matrix(3.95165 0 0 -3.95165 374.032 249.913)"/><path d="M0 0h-2.483a.106.106 0 0 1-.105-.106v-4.617h-2.73a.104.104 0 0 1-.104-.105V-6.16c0-.059.047-.102.104-.102h2.73v-10.521c0-.06.047-.105.105-.105H0c.056 0 .103.045.103.105V-.106A.106.106 0 0 1 0 0" style="fill:#595757;fill-opacity:1;fill-rule:nonzero;stroke:none" transform="matrix(3.95165 0 0 -3.95165 435.233 249.913)"/><path d="M0 0h-5.621a.168.168 0 0 0-.165.168V2.32h4.245c.05 0 .099.048.099.107v1.328a.102.102 0 0 1-.099.104h-4.245v2.47c0 .09.075.171.165.171h5.362c.055 0 .099.044.099.106v1.309c0 .058-.044.1-.099.1h-8.114a.099.099 0 0 1-.099-.1V.284c0-1.115.705-1.802 1.84-1.802H0a.1.1 0 0 1 .102.103v1.31A.101.101 0 0 1 0 0" style="fill:#595757;fill-opacity:1;fill-rule:nonzero;stroke:none" transform="matrix(3.95165 0 0 -3.95165 416.36 283.828)"/><path d="M0 0h-8.201a.168.168 0 0 0-.166.173v3.901a.103.103 0 0 1-.102.101h-2.486a.102.102 0 0 1-.103-.101V.305c0-1.104.751-1.842 1.866-1.842H0c.057 0 .104.046.104.101v1.332A.104.104 0 0 1 0 0" style="fill:#595757;fill-opacity:1;fill-rule:nonzero;stroke:none" transform="matrix(3.95165 0 0 -3.95165 630.056 311.883)"/><path d="M0 0h-8.136a.173.173 0 0 0-.171.173v2.858a.1.1 0 0 1-.099.1h-2.486a.102.102 0 0 1-.102-.1V.305c0-1.104.757-1.842 1.884-1.842H0c.055 0 .102.046.102.101v1.332A.104.104 0 0 1 0 0" style="fill:#595757;fill-opacity:1;fill-rule:nonzero;stroke:none" transform="matrix(3.95165 0 0 -3.95165 751.637 311.883)"/><path d="M0 0h-3.611a.105.105 0 0 1-.101-.104v-1.125c0-.058.045-.11.101-.11H0v-1.478c0-.058.046-.102.102-.102h2.482c.058 0 .098.044.098.102v12.879c0 .057-.04.106-.098.106H.102A.105.105 0 0 1 0 10.062Z" style="fill:#595757;fill-opacity:1;fill-rule:nonzero;stroke:none" transform="matrix(3.95165 0 0 -3.95165 740.797 290.093)"/><path d="M0 0h3.525v-2.441c0-.057.047-.108.103-.108h2.483c.058 0 .099.051.099.108V0h3.622c.058 0 .105.044.105.104v1.229a.102.102 0 0 1-.105.104H0a.101.101 0 0 1-.103-.104V.104C-.103.044-.057 0 0 0" style="fill:#595757;fill-opacity:1;fill-rule:nonzero;stroke:none" transform="matrix(3.95165 0 0 -3.95165 696.509 285.79)"/><path d="M0 0c0-.897-.879-1.626-1.959-1.626h-.285c-1.08 0-1.96.729-1.96 1.626v1.039c0 .9.88 1.635 1.96 1.635h.285C-.879 2.674 0 1.939 0 1.039Zm-1.523 3.876h-1.159c-2.354 0-4.193-1.471-4.193-3.346 0-1.878 1.839-3.355 4.193-3.355h1.159c2.352 0 4.192 1.465 4.192 3.338 0 1.884-1.84 3.363-4.192 3.363" style="fill:#595757;fill-opacity:1;fill-rule:nonzero;stroke:none" transform="matrix(3.95165 0 0 -3.95165 672.56 308.752)"/><path d="M0 0c0 .816.802 1.488 1.788 1.488h.253c.987 0 1.786-.672 1.786-1.488v-.945c0-.818-.799-1.482-1.786-1.482h-.253C.802-2.427 0-1.763 0-.945Zm-4.285 1.825h3.144l-.077-.063C-2 1.188-2.424.398-2.424-.464c0-1.707 1.669-3.047 3.806-3.047h1.057c2.138 0 3.813 1.329 3.813 3.032 0 .865-.431 1.665-1.215 2.241l-.079.063h3.15c.059 0 .104.047.104.101v1.187a.1.1 0 0 1-.104.103H3.257v1.732a.104.104 0 0 1-.102.107H.647c-.053 0-.101-.048-.101-.107V3.216h-4.831a.102.102 0 0 1-.103-.103V1.926c0-.054.048-.101.103-.101" style="fill:#595757;fill-opacity:1;fill-rule:nonzero;stroke:none" transform="matrix(3.95165 0 0 -3.95165 656.691 268.24)"/><path d="M0 0h-14.1a.107.107 0 0 1-.103-.105v-1.232c0-.052.046-.101.103-.101H0c.056 0 .101.049.101.101v1.232C.101-.051.056 0 0 0" style="fill:#595757;fill-opacity:1;fill-rule:nonzero;stroke:none" transform="matrix(3.95165 0 0 -3.95165 692.106 284.866)"/><path d="M0 0h2.485c.057 0 .102.047.102.105V11.53a.105.105 0 0 1-.102.106H0a.106.106 0 0 1-.103-.106V.105C-.103.047-.056 0 0 0" style="fill:#595757;fill-opacity:1;fill-rule:nonzero;stroke:none" transform="matrix(3.95165 0 0 -3.95165 617.912 295.895)"/><path d="m0 0-2.546 2.372c-.115.109-.322.322-.322.672l-.001 2.736h2.757c.056 0 .105.045.105.107v1.309c0 .057-.049.1-.105.1h-8.142a.1.1 0 0 1-.103-.1V5.887c0-.062.046-.107.103-.107h2.762l-.004-2.736c0-.35-.208-.563-.325-.672L-8.367 0a.113.113 0 0 1-.029-.071c-.003-.029.007-.059.026-.074l1.168-1.331a.1.1 0 0 1 .145-.007l2.756 2.635a.168.168 0 0 0 .116.049.18.18 0 0 0 .123-.049l2.754-2.635c.045-.039.109-.036.146.007L.005-.145c.021.015.03.045.024.074A.095.095 0 0 1 0 0" style="fill:#595757;fill-opacity:1;fill-rule:nonzero;stroke:none" transform="matrix(3.95165 0 0 -3.95165 609.906 280.986)"/><path d="M0 0a.104.104 0 0 1-.101.102h-2.551v3.886a.101.101 0 0 1-.103.102h-2.484a.101.101 0 0 1-.103-.102V-8.516c0-.057.044-.105.103-.105h2.484c.059 0 .103.048.103.105v7.077h2.551c.054 0 .101.047.101.103z" style="fill:#595757;fill-opacity:1;fill-rule:nonzero;stroke:none" transform="matrix(3.95165 0 0 -3.95165 506.56 265.996)"/><path d="M0 0h-7.797a.17.17 0 0 0-.164.173v3.978a.106.106 0 0 1-.105.108h-2.485c-.056 0-.102-.046-.102-.108V.329c0-1.125.732-1.847 1.865-1.847H0c.055 0 .102.046.102.104v1.31A.104.104 0 0 1 0 0" style="fill:#595757;fill-opacity:1;fill-rule:nonzero;stroke:none" transform="matrix(3.95165 0 0 -3.95165 498.015 311.883)"/><path d="m0 0-2.844 3.012s-.322.328-.322.576v3.943a.102.102 0 0 1-.105.101h-2.594a.102.102 0 0 1-.103-.101V3.588c0-.228-.324-.576-.324-.576L-9.431-.029A.103.103 0 0 1-9.459-.1a.086.086 0 0 1 .024-.075l1.262-1.399a.1.1 0 0 1 .144-.007l3.38 3.241a.168.168 0 0 0 .116.048c.049 0 .092-.02.123-.048l2.94-3.165a.1.1 0 0 1 .146.006L.005-.147c.019.016.03.047.025.075C.03-.044.02-.018 0 0" style="fill:#595757;fill-opacity:1;fill-rule:nonzero;stroke:none" transform="matrix(3.95165 0 0 -3.95165 479.301 280.407)"/><path d="M0 0h-5.725c-.197 0-.27.08-.27.174v1.527H0Zm2.52 4.772a.104.104 0 0 1-.103.104H.103A.104.104 0 0 1 0 4.772V3.055h-5.995v1.717a.103.103 0 0 1-.102.104h-2.315a.104.104 0 0 1-.103-.104V.369c0-1.104.751-1.842 1.867-1.842H2.421c.057 0 .102.046.102.101z" style="fill:#595757;fill-opacity:1;fill-rule:nonzero;stroke:none" transform="matrix(3.95165 0 0 -3.95165 556.324 312.136)"/><path d="M0 0c0-.804-.66-1.455-1.473-1.455h-.346c-.814 0-1.475.651-1.475 1.455v2.871c0 .807.661 1.458 1.475 1.458h.346C-.66 4.329 0 3.678 0 2.871Zm7.78 5.856H5.466a.106.106 0 0 1-.104-.106V2.47H2.524C2.497 4.379.927 5.876-1.083 5.876h-1.134c-2.023 0-3.608-1.522-3.608-3.455V.453c0-1.937 1.585-3.449 3.608-3.449h1.134c2.028 0 3.612 1.512 3.612 3.449v.479h2.833v-4.823c0-.055.046-.101.103-.101H7.78c.055 0 .102.046.102.101V5.75a.105.105 0 0 1-.102.106" style="fill:#595757;fill-opacity:1;fill-rule:nonzero;stroke:none" transform="matrix(3.95165 0 0 -3.95165 535.134 273.054)"/></svg>